<svg width="24" height="24" viewBox="0 0 24 24" fill="none" xmlns="http://www.w3.org/2000/svg">
<path d="M9.19002 6.35C7.15002 8.64 5.75002 11.93 5.62002 12.24L3.36002 11.27C2.71002 10.99 2.55002 10.14 3.05002 9.64L6.06002 6.63C6.53002 6.16 7.21002 5.95 7.87002 6.08L9.19002 6.35ZM10.68 16.51C10.98 16.81 11.42 16.89 11.8 16.71C12.96 16.17 15.45 14.9 17.06 13.29C21.65 8.7 21.69 4.96 21.42 3.36C21.3846 3.16346 21.29 2.98245 21.1488 2.84124C21.0076 2.70004 20.8266 2.60539 20.63 2.57C19.03 2.3 15.29 2.34 10.7 6.93C9.09002 8.54 7.83002 11.03 7.28002 12.19C7.10002 12.57 7.19002 13.02 7.48002 13.31L10.68 16.51ZM17.65 14.81C15.36 16.85 12.07 18.25 11.76 18.38L12.73 20.64C13.01 21.29 13.86 21.45 14.36 20.95L17.37 17.94C17.84 17.47 18.05 16.79 17.92 16.13L17.65 14.81ZM8.94002 17.41C9.03699 17.8943 9.01288 18.3951 8.86983 18.8678C8.72678 19.3406 8.46922 19.7707 8.12002 20.12C7.35002 20.89 4.96002 21.46 3.41002 21.76C2.72002 21.89 2.11002 21.28 2.24002 20.59C2.54002 19.04 3.10002 16.65 3.88002 15.88C4.22932 15.5308 4.65944 15.2732 5.13219 15.1302C5.60495 14.9871 6.10571 14.963 6.59002 15.06C7.76002 15.28 8.72002 16.24 8.94002 17.41ZM13 9C13 7.9 13.9 7 15 7C16.1 7 17 7.9 17 9C17 10.1 16.1 11 15 11C13.9 11 13 10.1 13 9Z" fill="white"/>
</svg>
