<svg width="24" height="24" viewBox="0 0 24 24" fill="none" xmlns="http://www.w3.org/2000/svg">
<path d="M21.3922 17.8597C21.0037 17.4772 16.296 15.6562 15.4417 15.3127C14.592 14.9752 14.253 14.04 14.253 14.04C14.253 14.04 13.8705 14.2515 13.8705 13.6575C13.8705 13.0627 14.253 14.04 14.6355 11.7465C14.6355 11.7465 15.6967 11.4487 15.486 8.9865H15.231C15.231 8.9865 15.8685 6.35399 15.231 5.46299C14.5912 4.572 14.3407 3.978 12.936 3.552C11.5335 3.12675 12.0435 3.2115 11.025 3.255C10.005 3.29775 9.15598 3.84975 9.15598 4.146C9.15598 4.146 8.51848 4.18875 8.26498 4.44375C8.00998 4.69875 7.58548 5.88674 7.58548 6.18374C7.58548 6.48074 7.79773 8.47875 8.00998 8.90175L7.75723 8.98424C7.54498 11.4472 8.60623 11.7457 8.60623 11.7457C8.98873 14.0392 9.37123 13.062 9.37123 13.6567C9.37123 14.2507 8.98873 14.0392 8.98873 14.0392C8.98873 14.0392 8.64898 14.9737 7.79998 15.312C6.95098 15.6517 2.23798 17.4772 1.85473 17.859C1.47223 18.249 1.51498 20.031 1.51498 20.031H21.7305C21.7305 20.031 21.7777 18.2475 21.3907 17.8582L21.3922 17.8597ZM16.641 19.5472H13.2195V18.6097H16.641V19.5472Z" fill="white"/>
</svg>
